<?xml version="1.0" standalone="no"?>
<!DOCTYPE svg PUBLIC "-//W3C//DTD SVG 20010904//EN"
 "http://www.w3.org/TR/2001/REC-SVG-20010904/DTD/svg10.dtd">
<svg version="1.0" xmlns="http://www.w3.org/2000/svg"
 width="3349.000000pt" height="1304.000000pt" viewBox="0 0 3349.000000 1304.000000"
 preserveAspectRatio="xMidYMid meet">
<metadata>
Created by potrace 1.15, written by Peter Selinger 2001-2017
</metadata>
<g transform="translate(0.000000,1304.000000) scale(0.100000,-0.100000)"
fill="#000000" stroke="none">
<path d="M11155 13033 c-1167 -77 -2252 -443 -3210 -1083 -2036 -1359 -3133
-3719 -2864 -6155 12 -104 22 -203 23 -220 l1 -29 -310 -112 -310 -112 -12 36
c-7 20 -325 1047 -708 2282 -758 2446 -704 2274 -709 2269 -6 -5 -3046 -9767
-3053 -9801 l-5 -28 270 0 270 0 11 33 c5 17 461 1487 1011 3266 581 1878
1014 3259 1032 3295 35 69 129 172 200 217 151 97 376 95 532 -5 98 -62 216
-211 216 -271 0 -9 102 -343 226 -741 125 -399 225 -727 223 -729 -3 -2 -415
-152 -917 -333 -502 -181 -916 -332 -919 -336 -3 -3 24 -88 59 -188 51 -142
69 -182 82 -180 9 2 421 149 917 328 496 179 902 323 904 322 1 -2 329 -1051
729 -2333 400 -1282 731 -2333 735 -2338 4 -4 124 -6 268 -5 l260 3 -708 2285
c-390 1257 -729 2349 -752 2427 l-44 141 281 101 c155 56 286 101 291 101 6 0
34 -97 63 -215 204 -829 583 -1623 1105 -2320 866 -1154 2099 -1996 3482
-2375 430 -118 851 -189 1309 -221 224 -15 858 -6 1066 15 1148 119 2193 506
3112 1152 l117 82 43 -32 c242 -182 682 -444 988 -589 713 -338 1398 -528
2205 -614 246 -26 1004 -26 1250 0 1122 119 2097 467 3000 1070 493 330 959
743 1332 1182 l87 102 89 -135 c298 -454 634 -822 1038 -1138 820 -641 1704
-989 2708 -1065 204 -15 750 -7 931 15 810 96 1497 343 2154 773 764 501 1383
1210 1753 2008 256 553 390 1013 460 1585 26 210 26 889 0 1105 -71 589 -215
1074 -486 1630 -179 367 -366 657 -630 975 -122 147 -492 517 -641 641 -445
370 -901 632 -1495 857 -753 285 -1673 363 -2530 216 -606 -105 -1309 -383
-1843 -731 -905 -588 -1622 -1503 -1970 -2514 -329 -954 -356 -2047 -76 -3018
76 -261 185 -544 295 -763 43 -85 48 -102 37 -116 -563 -725 -1381 -1373
-2232 -1769 -1101 -511 -2308 -687 -3511 -512 -881 129 -1748 462 -2502 963
-84 55 -152 104 -150 108 1 3 52 49 113 101 61 53 181 164 267 247 1121 1086
1811 2536 1952 4100 20 224 29 710 17 910 -6 100 -6 157 0 161 6 4 2159 782
4786 1729 2628 948 4778 1723 4779 1724 2 2 -128 368 -133 374 -1 2 -589 -208
-1306 -466 -717 -259 -1309 -472 -1317 -474 -8 -2 -49 53 -103 137 -166 259
-358 516 -572 765 -126 147 -526 545 -680 676 -778 662 -1682 1130 -2654 1373
-304 76 -602 128 -967 168 -235 26 -1008 26 -1250 0 -1170 -124 -2192 -502
-3125 -1154 l-115 -81 -55 41 c-126 91 -406 271 -563 361 -857 491 -1790 774
-2792 846 -126 9 -737 11 -860 3z m650 -353 c1156 -51 2190 -384 3148 -1013
92 -60 167 -113 167 -117 0 -4 -39 -41 -87 -82 -880 -753 -1564 -1770 -1933
-2876 -32 -96 -62 -178 -67 -182 -4 -5 -1708 -621 -3786 -1371 -2868 -1034
-3780 -1360 -3787 -1350 -8 14 -21 124 -42 346 -16 175 -16 791 0 975 74 823
278 1554 631 2260 716 1433 1956 2529 3471 3067 551 196 1176 316 1774 342
255 12 272 12 511 1z m7730 0 c346 -16 634 -49 945 -111 1614 -318 3045 -1279
3952 -2654 96 -144 98 -150 76 -157 -13 -5 -1474 -532 -3248 -1172 -2119 -764
-3227 -1159 -3231 -1152 -4 6 -10 36 -13 66 -11 83 -53 308 -87 460 -57 260
-173 650 -192 650 -11 0 -317 -109 -326 -117 -2 -1 14 -63 37 -136 77 -247
120 -416 170 -677 32 -162 66 -380 60 -385 -2 -1 -1013 -367 -2248 -812
l-2245 -810 -7 37 c-16 89 -39 363 -48 577 -24 548 42 1195 173 1708 l23 90
3290 1187 c1809 653 3293 1189 3298 1191 9 3 -108 351 -124 370 -3 4 -598
-206 -1321 -467 -1136 -410 -1315 -473 -1324 -459 -90 142 -258 390 -315 468
-299 406 -660 796 -1017 1098 -46 39 -83 73 -83 77 0 8 250 173 390 257 872
525 1875 827 2892 872 268 12 283 12 523 1z m-3991 -1454 c334 -282 658 -625
936 -989 105 -139 320 -451 320 -466 0 -4 -516 -193 -1147 -421 -632 -227
-1380 -498 -1664 -600 l-517 -186 13 35 c253 698 604 1308 1090 1891 157 188
531 566 713 718 73 62 136 112 139 112 3 0 56 -42 117 -94z m13476 -1851 c988
-106 1893 -532 2609 -1230 649 -631 1088 -1430 1260 -2290 166 -827 94 -1702
-204 -2465 -366 -940 -1031 -1724 -1895 -2235 -258 -153 -637 -323 -910 -409
-662 -209 -1418 -256 -2125 -131 -1073 189 -2071 807 -2744 1700 -121 160
-331 487 -331 516 0 5 31 56 68 112 325 484 616 1104 788 1682 124 415 199
796 251 1270 22 205 25 986 5 1190 -41 405 -108 790 -193 1100 -19 68 -19 70
0 85 10 8 59 49 107 91 486 415 1135 750 1749 903 296 73 485 102 860 130 108
8 568 -4 705 -19z m-3702 -1572 c108 -514 147 -959 130 -1506 -21 -699 -170
-1405 -439 -2079 -114 -285 -336 -721 -484 -952 l-37 -59 -30 69 c-82 194
-179 496 -227 710 -77 343 -104 600 -104 984 0 317 13 487 59 760 128 760 477
1499 996 2111 51 60 95 109 99 109 3 0 20 -66 37 -147z m-12429 -8 c-33 -162
-71 -421 -96 -650 -14 -129 -17 -250 -18 -625 0 -415 3 -487 23 -665 12 -110
26 -224 31 -253 8 -49 7 -54 -13 -62 -11 -4 -678 -244 -1480 -534 -803 -289
-1461 -528 -1463 -529 -3 -3 125 -366 131 -374 2 -2 2784 999 2867 1032 l36
14 33 -137 c312 -1314 1027 -2504 2041 -3394 76 -67 139 -125 139 -129 0 -7
-202 -144 -335 -226 -449 -278 -988 -516 -1515 -668 -777 -224 -1590 -291
-2415 -199 -2044 228 -3868 1506 -4801 3364 -216 431 -369 849 -484 1323 -23
93 -39 174 -37 180 3 9 7377 2678 7383 2673 1 -1 -11 -64 -27 -141z m4836
-1022 c11 -151 -1 -616 -20 -813 -128 -1330 -648 -2531 -1529 -3530 -132 -150
-381 -398 -531 -530 -185 -162 -212 -183 -229 -173 -37 21 -288 244 -430 383
-830 811 -1402 1808 -1681 2933 -30 121 -52 223 -49 226 5 6 4443 1609 4456
1610 3 1 9 -47 13 -106z"/>
</g>
</svg>
